<?xml version="1.0" encoding="utf-8"?>
<!DOCTYPE svg PUBLIC "-//W3C//DTD SVG 1.0//EN" "http://www.w3.org/TR/2001/REC-SVG-20010904/DTD/svg10.dtd">
<svg version="1.0" xmlns="http://www.w3.org/2000/svg" width="960px" height="268px" viewBox="0 0 960 268" preserveAspectRatio="xMidYMid meet">
 <g fill="#ffffff" stroke="#fbfaf7" stroke-width="0.492">
  <path d="M0 133.77 l0 -133.77 480 0 480 0 0 133.77 0 133.77 -480 0 -480 0 0 -133.77z m909.34 74.26 c0 -2.90 -0.54 -3.15 -1.43 -0.59 -0.39 0.98 -0.79 2.11 -0.89 2.46 -0.15 0.34 0.20 0.59 1.03 0.59 1.23 0 1.28 -0.15 1.28 -2.46z m-25.08 0.25 c0 -0.59 -1.18 -2.70 -1.57 -2.70 -0.20 0 -0.39 0.69 -0.39 1.48 0 1.13 0.20 1.48 0.98 1.48 0.54 0 0.98 -0.10 0.98 -0.25z m-195.74 -1.23 c-0.30 -0.54 -0.64 -0.98 -0.74 -0.98 -0.15 0 -0.25 0.44 -0.25 0.98 0 0.54 0.34 0.98 0.74 0.98 0.64 0 0.69 -0.20 0.25 -0.98z m-586.18 -51.69 c5.07 -0.64 13.67 -3.64 18.34 -6.39 12.25 -7.23 18.49 -21.69 15.10 -34.97 -1.52 -5.90 -3.59 -9.49 -8.11 -13.97 -3.34 -3.30 -4.82 -4.33 -9.15 -6.44 -2.85 -1.43 -9.69 -4.08 -15.25 -5.95 -5.56 -1.92 -11.80 -4.13 -13.92 -4.97 -10.08 -4.03 -14.46 -9.25 -14.95 -17.90 -0.74 -11.70 4.43 -19.03 15.98 -22.82 3.59 -1.13 15.74 -1.43 19.92 -0.44 4.57 1.08 8.85 3.34 11.75 6.25 l2.46 2.46 4.13 -3.54 c2.26 -1.92 4.13 -3.79 4.13 -4.18 0 -0.84 -6.44 -5.85 -9.59 -7.43 -8.26 -4.23 -18.93 -5.90 -27.64 -4.38 -19.48 3.39 -31.18 13.67 -33.59 29.51 -1.57 10.33 2.95 21 11.46 27.05 5.75 4.08 9.98 5.95 25.43 11.16 16.18 5.51 20.90 8.41 23.75 14.61 1.48 3.20 1.57 13.77 0.15 17.56 -2.21 5.85 -7.62 10.52 -14.75 12.84 -5.80 1.87 -15 2.21 -21.15 0.74 -5.80 -1.38 -10.52 -3.93 -14.31 -7.77 l-3.10 -3.05 -4.43 3.54 c-2.46 1.97 -4.48 3.69 -4.48 3.84 -0.05 0.44 5.46 5.75 7.13 6.93 2.80 1.87 8.95 4.77 12.44 5.85 7.33 2.21 14.80 2.85 22.23 1.87z m66.79 -17.51 l6.20 -14.85 24.49 -0.05 24.49 0 -2.85 -5.41 -2.85 -5.41 -18.54 0 -18.59 0 0 -1.92 c0 -1.33 1.43 -5.36 4.62 -12.93 10.82 -25.77 26.02 -62.16 26.26 -63 0.20 -0.79 -0.15 -0.89 -4.57 -0.74 l-4.77 0.15 -5.16 11.80 c-2.80 6.49 -8.02 18.34 -11.56 26.31 -3.49 7.97 -9.79 22.28 -13.92 31.72 -7.18 16.38 -14.11 32.16 -19.13 43.52 -1.23 2.80 -2.26 5.31 -2.26 5.56 0 0.20 2.70 0.30 6 0.25 l6 -0.15 6.15 -14.85z m102.34 -12.44 l0 -27.54 10.87 0.10 10.82 0.15 16.52 27.44 16.48 27.39 6.64 0 c3.64 0 6.49 -0.15 6.39 -0.34 -2.46 -4.13 -10.87 -17.75 -20.56 -33.44 -13.03 -21 -13.72 -22.43 -10.87 -23.07 10.28 -2.26 16.52 -5.61 22.03 -11.66 5.51 -6.05 8.07 -16.18 6.39 -25.33 -2.11 -11.90 -10.33 -20.21 -23.11 -23.46 -7.28 -1.87 -12.79 -2.21 -33.74 -2.21 l-19.67 0 0 59.75 0 59.75 5.90 0 5.90 0 0 -27.54z m102.93 15.39 c2.85 -6.74 5.70 -13.48 6.34 -15 l1.13 -2.85 24.49 0 24.44 0 -2.70 -5.41 -2.70 -5.41 -18.69 0 -18.69 0 0 -1.92 c0 -1.38 2.75 -8.46 9.64 -24.93 16.03 -38.41 21.34 -51.20 21.34 -51.54 0 -0.20 -2.16 -0.25 -4.77 -0.20 l-4.77 0.15 -1.67 3.93 c-2.66 6.25 -17.95 41.11 -26.41 60.25 -4.23 9.59 -9.54 21.69 -11.80 26.80 -2.26 5.16 -5.90 13.43 -8.07 18.39 -2.21 4.97 -3.98 9.25 -3.98 9.44 0 0.25 2.66 0.44 5.85 0.44 l5.85 0 5.16 -12.15z m124.48 11.66 c18.98 -1.57 31.62 -8.21 37.38 -19.52 2.66 -5.36 3.54 -13.62 2.02 -19.57 -1.38 -5.41 -3.54 -9.05 -7.82 -13.28 -4.57 -4.52 -8.41 -6.69 -14.26 -8.02 -3.69 -0.84 -3.74 -0.84 -3.74 -2.41 0 -1.43 0.25 -1.67 3.64 -3.30 9.49 -4.57 14.75 -11.02 16.33 -20.11 2.51 -14.26 -6.64 -26.75 -22.57 -30.79 -6.79 -1.77 -10.87 -2.02 -31.62 -2.02 l-20.36 0 0 59.75 0 59.75 17.61 0 c9.64 0 20.16 -0.25 23.41 -0.49z m72.39 -7.87 c1.92 -4.48 4.77 -11.16 6.30 -14.85 l2.85 -6.79 24.30 0 24.30 0 -2.70 -5.41 -2.70 -5.41 -18.69 0 -18.69 0 0 -1.67 c0 -1.03 2.95 -8.70 7.92 -20.51 4.33 -10.38 11.36 -27.20 15.54 -37.33 4.18 -10.13 7.72 -18.59 7.87 -18.79 0.10 -0.25 -2.02 -0.39 -4.67 -0.39 l-4.92 0 -2.56 6.05 c-1.43 3.30 -5.41 12.44 -8.85 20.26 -18.69 42.59 -35.36 80.46 -37.92 86.21 -1.57 3.64 -2.90 6.69 -2.90 6.79 0 0.15 2.70 0.15 6 0.10 l6.05 -0.15 3.49 -8.11z m105.44 -42.54 l0 -50.90 1.62 0 c1.48 0 1.87 0.39 5.36 5.56 2.07 3 8.26 11.95 13.72 19.77 13.57 19.43 24.54 35.21 31.67 45.49 3.30 4.72 9.44 13.62 13.72 19.82 l7.77 11.16 7.72 -0.10 7.67 -0.15 0.15 -59.61 0.10 -59.66 -5.90 0 -5.90 0 0 50.70 0 50.66 -1.82 -0.15 c-1.82 -0.15 -1.97 -0.34 -10.62 -12.93 -4.87 -7.03 -11.51 -16.67 -14.80 -21.39 -3.30 -4.72 -10.43 -14.90 -15.79 -22.62 -5.36 -7.72 -13.77 -19.77 -18.69 -26.80 -4.92 -7.03 -9.64 -13.82 -10.52 -15.10 l-1.57 -2.36 -7.82 0 -7.87 0 0 59.75 0 59.75 5.90 0 5.90 0 0 -50.90z m177.05 50.02 c20.51 -3.25 36.98 -14.61 45.39 -31.33 3.64 -7.28 5.90 -18 5.90 -28.03 0 -30.49 -19.77 -53.61 -50.07 -58.52 -3.44 -0.59 -9.79 -0.74 -29.11 -0.74 l-24.74 0 0 59.75 0 59.80 24.74 -0.20 c13.57 -0.15 26.11 -0.44 27.89 -0.74z"/>
  <path d="M271.48 65.41 l0 -21.74 16.13 0.25 c18.10 0.30 21.20 0.69 27 3.54 4.13 2.02 6.54 4.57 8.11 8.56 1.48 3.74 1.62 14.16 0.25 18.10 -1.92 5.46 -6.98 9.30 -15.34 11.56 -3.54 0.93 -5.46 1.08 -20.02 1.28 l-16.13 0.20 0 -21.74z"/>
  <path d="M469.67 118.72 l0 -23.46 16.87 0.30 c21.54 0.34 25.62 1.08 32.36 6.05 5.80 4.23 8.56 12.15 7.38 21.20 -1.18 9.15 -6.84 14.75 -18.05 17.90 -3.59 1.03 -5.21 1.13 -21.20 1.33 l-17.36 0.20 0 -23.51z"/>
  <path d="M469.67 64.43 l0 -20.75 15.89 0.25 c17.36 0.30 20.07 0.64 25.62 3.25 3.54 1.72 6.30 4.48 7.87 7.87 0.89 1.97 1.03 3.15 1.03 8.90 0 6.15 -0.10 6.84 -1.28 9.39 -1.82 3.84 -4.43 6.59 -8.02 8.31 -5.85 2.85 -7.43 3.05 -24.98 3.30 l-16.13 0.25 0 -20.75z"/>
  <path d="M813.15 93.10 l0.05 -49.08 18.44 0.05 c20.02 0.05 23.26 0.34 31.52 2.95 8.36 2.61 15.54 7.38 19.92 13.08 2.95 3.93 6.25 10.82 7.52 15.84 2.46 9.34 2.46 25.08 0.05 34.43 -4.13 16.03 -16.03 26.61 -34.43 30.59 -2.95 0.64 -7.77 0.84 -23.41 1.03 l-19.77 0.25 0.10 -49.13z"/>
 </g>
 <g fill="#000000">
  <path d="M108.10 236.56 c-4.48 -0.79 -8.36 -4.28 -10.23 -9.15 -1.52 -4.08 -1.52 -10.57 0 -14.70 2.31 -6.15 7.77 -9.49 14.70 -9 5.21 0.39 8.90 2.90 11.41 7.77 1.52 3.05 1.92 10.57 0.74 14.95 -2.07 7.57 -8.61 11.51 -16.62 10.13z m6.64 -3 c2.36 -0.64 5.02 -2.95 6.34 -5.56 1.48 -2.80 1.82 -9.89 0.69 -13.77 -2.02 -6.98 -9.44 -10.03 -16.03 -6.69 -3.84 1.97 -5.90 6.25 -5.90 12.25 0 5.26 1.08 8.51 3.59 11.07 3 3 6.93 3.93 11.31 2.70z"/>
  <path d="M157.13 236.75 c-0.54 -0.10 -2.21 -0.30 -3.69 -0.44 -3.44 -0.34 -4.08 -0.74 -3.69 -2.31 l0.30 -1.23 2.80 0.64 c5.21 1.23 9.74 0.69 12.25 -1.52 1.18 -0.98 1.38 -1.52 1.38 -3.59 0 -3.44 -1.48 -4.87 -7.43 -7.23 -6.84 -2.70 -9.05 -4.92 -9.05 -9.10 0 -6.34 6.49 -9.69 15.25 -7.82 2.31 0.49 2.46 0.64 2.46 2.02 0 1.08 -0.20 1.43 -0.69 1.23 -2.21 -0.84 -6.69 -1.28 -8.90 -0.89 -4.18 0.79 -6.20 4.13 -4.57 7.67 0.69 1.57 2.51 2.70 7.52 4.67 2.16 0.84 4.67 2.11 5.61 2.80 5.11 3.93 3.34 12.39 -3 14.31 -1.82 0.59 -5.07 0.93 -6.54 0.79z"/>
  <path d="M368.51 236.51 c-4.77 -0.59 -8.21 -3.39 -10.57 -8.61 -0.93 -2.02 -1.13 -3.25 -1.13 -7.87 0 -5.26 0.05 -5.56 1.72 -8.85 2.75 -5.46 7.33 -7.92 13.82 -7.48 5.75 0.44 9.69 3.39 11.90 8.95 1.33 3.34 1.43 10.72 0.15 14.41 -2.36 6.98 -8.16 10.43 -15.89 9.44z m7.52 -3.59 c4.33 -2.02 6.25 -5.85 6.25 -12.84 0.05 -5.31 -1.18 -8.61 -4.13 -11.26 -4.82 -4.38 -13.18 -3.15 -16.48 2.41 -2.75 4.77 -2.70 13.23 0.15 17.90 2.80 4.57 9 6.20 14.21 3.79z"/>
  <path d="M471.10 236.56 c-2.80 -0.49 -4.72 -1.43 -6.44 -3.30 -2.56 -2.66 -2.85 -4.57 -2.85 -17.41 l0 -11.75 1.23 0 1.23 0 0 9.49 c0.05 14.26 0.74 17.31 4.57 19.38 2.51 1.38 7.97 1.18 10.38 -0.30 3.39 -2.11 3.74 -3.49 3.74 -16.87 l0 -11.70 1.48 0 1.48 0 0 11.56 c0 10.43 -0.10 11.75 -1.03 14.21 -1.92 5.21 -7.13 7.77 -13.77 6.69z"/>
  <path d="M524.16 236.46 c-5.02 -0.64 -8.51 -2.95 -10.52 -6.89 -3.79 -7.48 -2.02 -18.54 3.64 -22.87 3.79 -2.85 9.93 -3.84 15.34 -2.46 1.97 0.54 2.21 0.74 2.07 1.82 -0.10 0.69 -0.25 1.28 -0.25 1.28 -0.05 0.05 -1.62 -0.25 -3.54 -0.64 -8.95 -1.82 -14.90 2.16 -16.13 10.87 -0.98 6.74 1.28 12.34 6.10 15.05 1.82 1.03 2.80 1.23 6.10 1.23 2.16 0 4.72 -0.10 5.66 -0.25 1.57 -0.25 1.72 -0.15 1.72 0.93 0 0.93 -0.34 1.28 -1.48 1.57 -2.61 0.59 -5.80 0.74 -8.70 0.34z"/>
  <path d="M642.79 236.51 c-3.59 -0.59 -6.79 -2.61 -8.70 -5.56 -2.16 -3.20 -2.80 -5.66 -2.80 -10.87 0 -5.61 1.08 -9 3.79 -11.95 2.70 -2.90 5.31 -4.13 9.25 -4.43 6.64 -0.44 11.41 2.21 14.02 7.87 1.28 2.80 1.43 3.64 1.43 8.26 0 6.79 -0.93 9.64 -4.38 13.03 -3.30 3.30 -7.38 4.48 -12.59 3.64z m6.44 -2.95 c6.10 -2.07 9.20 -9.98 7.13 -18.10 -1.08 -4.23 -2.36 -6.20 -5.11 -7.82 -1.97 -1.13 -2.85 -1.33 -5.75 -1.28 -5.16 0.05 -7.97 1.92 -10.13 6.84 -1.28 2.90 -1.52 9.54 -0.49 12.79 2.07 6.30 8.26 9.59 14.36 7.57z"/>
  <path d="M53.11 220.38 l0 -16.28 6.30 0 c5.75 0 6.54 0.10 8.75 1.23 3.25 1.62 4.62 3.98 4.62 7.82 0 6.89 -4.28 10.13 -13.28 10.13 l-3.39 0 -0.15 6.54 -0.15 6.49 -1.33 0.15 -1.38 0.15 0 -16.23z m13.13 -0.64 c0.74 -0.34 1.87 -1.43 2.51 -2.36 0.98 -1.43 1.13 -2.16 0.98 -4.52 -0.34 -4.82 -2.66 -6.30 -9.84 -6.30 l-3.84 0 0 7.18 0 7.23 4.43 -0.30 c2.41 -0.15 5.02 -0.59 5.75 -0.93z"/>
  <path d="M201.15 221.61 l0 -15.05 -5.16 0 -5.16 0 0 -1.23 0 -1.23 11.80 0 11.80 0 0 1.23 c0 1.18 -0.05 1.18 -5.26 1.33 l-5.31 0.15 0 14.75 0 14.75 -1.33 0.15 -1.38 0.15 0 -15z"/>
  <path d="M268.43 236.21 c-0.84 -0.20 -0.89 -1.38 -0.89 -16.23 l0 -15.98 6.79 0.20 c6.39 0.15 6.93 0.25 8.80 1.48 2.41 1.62 3.64 4.08 3.64 7.43 0 6.59 -3.39 9.49 -11.75 10.08 l-4.77 0.34 0 6.34 c0 6.39 -0.15 6.79 -1.82 6.34z m9.20 -15.89 c3.54 -0.59 5.61 -2.36 6.10 -5.21 1.08 -6.05 -2.46 -8.90 -10.52 -8.46 l-2.95 0.15 -0.15 6.34 c-0.05 3.54 0 6.69 0.10 7.03 0.30 0.79 3.30 0.84 7.43 0.15z"/>
  <path d="M313.92 236.16 c-1.08 -0.15 -1.08 -0.34 -1.23 -8.61 -0.10 -4.67 -0.10 -11.85 0 -15.98 l0.15 -7.57 6.74 0.20 c7.57 0.15 9.20 0.74 11.26 3.84 1.33 1.92 1.52 6.39 0.44 9 -0.59 1.52 -2.70 3.64 -4.57 4.72 -0.84 0.44 -0.44 1.18 6.25 12.49 l1.08 1.82 -1.72 0 c-1.72 0 -1.82 -0.10 -5.61 -6.64 l-3.84 -6.64 -3.79 0 -3.79 0 -0.15 6.79 c-0.15 6.64 -0.15 6.74 -1.23 6.59z m12.05 -17.11 c2.07 -1.18 3.05 -3.15 3.05 -6 0 -4.62 -2.75 -6.49 -9.59 -6.49 l-4.18 0 0 6.54 c0 3.64 0.15 6.74 0.39 6.93 0.64 0.74 8.85 -0.05 10.33 -0.98z"/>
  <path d="M411.59 231.59 c-0.05 -2.80 -0.10 -9.10 -0.20 -13.97 -0.05 -4.87 0 -9.93 0.15 -11.21 l0.25 -2.41 6.98 0.20 c6.59 0.15 7.08 0.25 9.89 1.62 4.97 2.56 7.23 6.98 7.23 14.26 0.05 5.11 -1.08 8.36 -3.89 11.51 -3.20 3.54 -6.10 4.52 -14.07 4.87 l-6.30 0.25 -0.05 -5.11z m14.80 0.84 c4.43 -2.31 6 -5.16 6.30 -11.51 0.25 -5.07 -0.44 -7.77 -2.70 -10.48 -2.26 -2.66 -4.72 -3.54 -10.57 -3.79 l-5.31 -0.25 0 13.28 c0 7.28 0.15 13.43 0.39 13.62 0.69 0.79 10.08 0.05 11.90 -0.89z"/>
  <path d="M566.70 236.21 c-0.49 -0.15 -0.64 -3.64 -0.64 -14.95 l0 -14.70 -4.92 0 -4.92 0 0 -1.23 0 -1.23 11.31 0 11.31 0 0 1.23 c0 1.23 0 1.23 -4.92 1.23 l-4.92 0 -0.10 14.85 c-0.15 15.59 -0.15 15.69 -2.21 14.80z"/>
  <path d="M602.46 220.38 l0 -16.28 1.48 0 1.48 0 -0.10 16.13 -0.15 16.08 -1.33 0.15 -1.38 0.15 0 -16.23z"/>
  <path d="M686.07 220.33 l0 -16.23 1.43 0 c1.57 0 0.98 -0.84 13.97 19.28 2.75 4.23 5.11 7.72 5.26 7.72 0.15 0.05 0.20 -6.05 0.10 -13.48 l-0.15 -13.52 1.52 0 1.48 0 0 15.98 c0 14.36 -0.10 16.03 -0.79 16.33 -0.44 0.15 -1.18 0.10 -1.62 -0.20 -0.93 -0.59 -6.79 -9.05 -13.23 -19.18 -2.61 -4.13 -4.92 -7.52 -5.11 -7.52 -0.25 0 -0.39 6.10 -0.39 13.52 l0 13.52 -1.23 0 -1.23 0 0 -16.23z"/>
  <path d="M767.07 236.21 c-0.20 -0.15 -0.34 -7.48 -0.34 -16.23 l0 -15.89 8.85 0 8.85 0 0 1.23 0 1.23 -6.54 0 c-8.41 0 -8.21 -0.20 -8.21 7.28 l0 5.46 7.03 0.15 6.98 0.15 0 1.23 0 1.23 -6.89 0.25 -6.89 0.25 -0.15 7.03 c-0.15 6.93 -0.15 6.98 -1.28 6.98 -0.59 0 -1.28 -0.15 -1.43 -0.34z"/>
  <path d="M808.87 236.26 c-0.20 -0.20 -0.34 -7.52 -0.34 -16.28 l0 -15.89 1.48 0 1.48 0 -0.10 16.13 c-0.15 15.79 -0.15 16.08 -1.13 16.23 -0.59 0.10 -1.18 0 -1.38 -0.20z"/>
  <path d="M839.36 236.26 c-0.20 -0.20 -0.34 -7.52 -0.34 -16.28 l0 -15.89 1.23 0 1.23 0 0 12.93 c0 7.08 0.15 13.72 0.30 14.75 l0.34 1.82 7.33 0 7.33 0 -0.15 1.38 -0.15 1.33 -8.41 0.15 c-4.57 0.05 -8.51 -0.05 -8.70 -0.20z"/>
  <path d="M881.95 236.16 l-1.13 -0.15 0 -15.98 0 -15.93 1.87 0 1.92 0 3.74 9 c2.07 4.92 4.57 11.02 5.56 13.52 1.03 2.46 1.97 4.52 2.11 4.52 0.15 0 2.75 -6.10 5.70 -13.52 l5.41 -13.52 1.87 0 1.82 0 0 16.28 0 16.23 -1.33 -0.15 -1.38 -0.15 0 -12.20 c0 -10.48 -0.10 -12.15 -0.74 -12.15 -0.49 0 -2.07 3.34 -4.82 10.23 -5.31 13.33 -5.80 14.36 -6.69 14.36 -0.89 0 -0.93 -0.05 -6.93 -15 -2.51 -6.20 -4.82 -11.36 -5.11 -11.46 -0.34 -0.10 -0.54 3.74 -0.64 13.03 l-0.15 13.18 -1.08 -0.15z"/>
  <path d="M237.34 222.15 c-1.08 -0.79 -0.89 -3.20 0.30 -3.93 1.38 -0.89 3.34 0.34 3.34 2.07 0 2.16 -1.92 3.10 -3.64 1.87z"/>
  <path d="M737.11 222.25 c-1.38 -0.79 -1.13 -3.30 0.34 -3.98 1.03 -0.44 1.38 -0.39 2.21 0.34 1.28 1.18 1.23 2.46 -0.10 3.39 -1.28 0.93 -1.33 0.93 -2.46 0.25z"/>
  <path d="M86.26 156.64 c-7.08 -1.08 -14.85 -4.03 -20.11 -7.57 -1.67 -1.13 -8.61 -7.92 -8.61 -8.41 0 -0.20 2.75 -2.61 6.15 -5.36 l6.20 -5.02 1.28 1.62 c6.54 8.07 15.84 12.10 26.46 11.56 11.56 -0.59 20.46 -6 23.66 -14.36 1.38 -3.64 1.28 -11.46 -0.15 -14.61 -2.80 -6.20 -7.57 -9.10 -23.75 -14.61 -15.44 -5.21 -19.67 -7.08 -25.43 -11.16 -8.95 -6.39 -13.28 -17.51 -11.51 -29.75 2.36 -15.98 14.02 -26.36 33.64 -29.75 9.64 -1.72 21.98 0 30.34 4.23 4.52 2.26 11.41 8.21 11.26 9.69 0 0.20 -2.56 2.56 -5.70 5.21 l-5.66 4.87 -3 -3.20 c-5.56 -5.75 -11.90 -8.02 -21.49 -7.57 -6 0.30 -8.46 0.89 -13.08 3.15 -9.34 4.52 -13.48 15.54 -9.25 24.74 3.05 6.69 6.93 8.90 27.25 15.84 5.56 1.87 12.39 4.52 15.25 5.95 4.33 2.11 5.80 3.15 9.15 6.44 6.39 6.34 9.05 12.98 9.05 22.62 -0.05 9.98 -2.85 17.41 -9.05 23.66 -4.28 4.33 -8.75 7.03 -15.84 9.54 -8.16 2.95 -17.70 3.74 -27.05 2.26z"/>
  <path d="M258.20 93.20 l0 -61.23 21.15 0 c22.43 0 27.84 0.34 35.21 2.21 12.79 3.25 20.95 11.56 23.11 23.46 0.89 4.72 0.64 12.84 -0.49 17.02 -3 11.11 -11.66 18.84 -24.84 22.18 -2.26 0.54 -4.18 1.08 -4.28 1.13 -0.05 0.10 1.87 3.34 4.33 7.28 10.67 17.11 29.46 47.70 29.70 48.44 0.25 0.64 -0.79 0.74 -8.56 0.74 l-8.85 0 -16.48 -27.39 -16.48 -27.44 -9.39 -0.15 -9.39 -0.10 0 27.54 0 27.54 -7.38 0 -7.38 0 0 -61.23z m47.95 -9.05 c5.75 -1.52 9.64 -3.59 12.25 -6.49 3.05 -3.39 3.98 -6.34 3.93 -12.49 -0.05 -8.36 -2.66 -12.98 -9.20 -16.23 -5.66 -2.75 -9 -3.25 -25.52 -3.54 l-14.66 -0.25 0 20.26 0 20.26 14.66 -0.20 c12.98 -0.20 15.05 -0.34 18.54 -1.33z"/>
  <path d="M456.39 93.20 l0 -61.23 21.84 0 c12.84 0 23.41 0.20 25.62 0.54 12.69 1.77 21.54 6.54 26.70 14.46 3.34 5.11 4.72 13.43 3.39 20.75 -1.67 9.15 -6.89 15.54 -16.48 20.16 l-3.74 1.77 3.89 0.93 c6 1.43 9.74 3.49 14.31 8.02 6.25 6.15 8.75 12.44 8.66 21.64 -0.10 13.48 -5.51 22.03 -18.05 28.28 -9.59 4.77 -18.30 5.90 -47.07 5.90 l-19.08 0 0 -61.23z m50.36 46.03 c12.34 -3.44 18.10 -9.84 18.10 -20.21 -0.05 -8.95 -4.08 -15.10 -12.44 -18.89 -4.97 -2.26 -9.25 -2.75 -25.82 -3.10 l-15.44 -0.30 0 21.98 0 22.03 15.89 -0.20 c14.46 -0.20 16.18 -0.34 19.72 -1.33z m-3.39 -56.80 c7.18 -1.97 11.41 -5.16 13.97 -10.57 1.13 -2.41 1.28 -3.34 1.28 -7.92 0 -4.23 -0.20 -5.61 -1.08 -7.43 -1.52 -3.39 -4.28 -6.15 -7.82 -7.87 -5.41 -2.56 -8.36 -2.95 -24.15 -3.25 l-14.41 -0.30 0 19.33 0 19.28 14.66 -0.25 c11.46 -0.15 15.25 -0.39 17.56 -1.03z"/>
  <path d="M663.44 93.20 l0 -61.23 9.34 0 9.30 0 1.57 2.36 c0.89 1.28 5.61 8.07 10.52 15.10 4.92 7.03 13.33 19.08 18.69 26.80 5.36 7.72 12 17.21 14.75 21.15 2.75 3.93 9.34 13.48 14.70 21.25 5.36 7.77 9.93 14.26 10.18 14.41 0.25 0.20 0.44 -19.67 0.44 -50.36 l0 -50.70 7.38 0 7.38 0 -0.10 61.13 -0.15 61.08 -9.15 0.15 -9.20 0.10 -7.77 -11.16 c-4.28 -6.20 -10.43 -15.10 -13.72 -19.82 -7.13 -10.28 -18.10 -26.07 -31.67 -45.49 -5.46 -7.82 -11.66 -16.72 -13.72 -19.77 l-3.79 -5.51 -0.15 50.90 -0.10 50.85 -7.38 0 -7.38 0 0 -61.23z"/>
  <path d="M799.67 93.20 l0 -61.23 26.21 0 c20.61 0 27.10 0.15 30.59 0.74 12.93 2.07 23.75 7.23 32.36 15.44 8.75 8.36 13.82 17.80 16.62 31.03 1.43 6.59 1.52 19.38 0.30 26.41 -0.98 5.31 -3.39 13.13 -5.11 16.62 -4.72 9.34 -12.64 17.75 -22.03 23.26 -6.44 3.79 -15.05 6.74 -23.36 8.07 -1.77 0.30 -14.85 0.59 -29.36 0.74 l-26.21 0.20 0 -61.28z m55.08 46.28 c15.30 -3.30 25.77 -10.82 31.52 -22.67 3.84 -7.97 5.46 -19.13 4.43 -29.85 -0.79 -7.43 -2.02 -12.25 -4.67 -17.85 -4.97 -10.43 -12.59 -16.92 -24.34 -20.61 -8.11 -2.56 -11.66 -2.90 -30.05 -2.95 l-16.97 -0.05 -0.05 47.61 -0.05 47.66 18.25 -0.25 c14.21 -0.20 19.03 -0.39 21.93 -1.03z"/>
 </g>
 <g fill="#c1ab7b">
  <path d="M148.43 154.18 c-0.15 -0.20 1.03 -3.34 2.66 -7.03 1.62 -3.69 5.07 -11.51 7.62 -17.31 2.56 -5.80 8.07 -18.30 12.20 -27.79 4.13 -9.44 10.43 -23.75 13.92 -31.72 3.54 -7.97 8.75 -19.82 11.56 -26.31 l5.16 -11.80 6.98 -0.15 c5.51 -0.10 6.93 0 6.74 0.49 -0.89 2.26 -23.85 57.15 -27.64 66.15 -2.56 6.05 -4.67 11.26 -4.67 11.51 0 0.25 7.48 0.44 18.59 0.44 l18.54 0 3.34 6.34 c1.82 3.49 3.30 6.59 3.30 6.89 0 0.39 -6.93 0.54 -24.93 0.54 l-24.98 0.05 -6.20 14.85 -6.15 14.85 -7.87 0.15 c-4.33 0.05 -8.02 0 -8.16 -0.15z"/>
  <path d="M354.59 154.23 c0 -0.25 12.39 -28.52 25.33 -57.84 8.41 -19.03 23.70 -54 26.41 -60.25 l1.67 -3.93 6.98 -0.15 6.98 -0.15 -0.44 1.13 c-0.49 1.23 -24.93 59.90 -29.36 70.38 -1.48 3.49 -2.66 6.54 -2.66 6.79 0 0.25 7.57 0.44 18.69 0.44 l18.69 0 3.20 6.39 c1.77 3.49 3.20 6.59 3.20 6.89 0 0.34 -8.41 0.49 -24.93 0.49 l-24.98 0 -1.13 2.85 c-0.64 1.52 -3.49 8.26 -6.34 15 l-5.16 12.15 -8.07 0 c-4.43 0 -8.07 -0.10 -8.07 -0.20z"/>
  <path d="M553.28 153.98 c0 -0.59 1.87 -4.87 20.16 -46.52 22.62 -51.39 27.59 -62.80 30.49 -69.44 l2.56 -6.05 6.84 0 c3.79 0 6.84 0.10 6.84 0.20 0 0.30 -15.25 37.03 -24.54 59.26 -4.38 10.38 -7.92 18.93 -7.92 19.03 0 0.10 8.41 0.20 18.69 0.20 l18.69 0 3.44 6.89 3.44 6.89 -25.03 0 -25.03 0 -2.85 6.79 c-1.52 3.69 -4.38 10.38 -6.30 14.85 l-3.49 8.11 -8.02 0.15 c-4.72 0.05 -7.97 -0.05 -7.97 -0.34z"/>
  <path d="M814.62 98.61 c0 -5.11 0.10 -7.18 0.15 -4.52 0.10 2.66 0.10 6.84 0 9.34 -0.05 2.51 -0.15 0.34 -0.15 -4.82z"/>
  <path d="M814.62 77.70 c0 -2.85 0.05 -3.98 0.15 -2.56 0.10 1.38 0.10 3.74 0 5.16 -0.10 1.38 -0.15 0.25 -0.15 -2.61z"/>
 </g>
</svg>